; NON-PLATED HOLES START AT T1
; THROUGH (PLATED) HOLES START AT T100
M48
INCH
T1C0.055118
T100C0.035000
%
T1
X004211Y004342
X002211Y004342
T100
X011711Y000794
X011940Y004433
X005711Y004374
X008940Y001874
X010712Y004433
X007483Y004374
X009711Y000794
X013712Y004433
X000711Y000874
X014711Y000874
X011940Y001874
X005711Y001815
X004711Y000874
X015711Y000794
X013712Y001874
X010711Y000874
X010712Y001874
X005711Y000794
X013711Y000794
X008940Y004433
X007483Y001815
X012711Y000874
X008711Y000874
X002711Y000874
X003711Y000794
X007711Y000794
X006711Y000874
X001711Y000794
T00
M30
