G04 MADE WITH FRITZING*
G04 WWW.FRITZING.ORG*
G04 SINGLE SIDED*
G04 HOLES NOT PLATED*
G04 CONTOUR ON CENTER OF CONTOUR VECTOR*
%ASAXBY*%
%FSLAX23Y23*%
%MOIN*%
%OFA0B0*%
%SFA1.0B1.0*%
%ADD10C,0.075000*%
%ADD11C,0.055000*%
%ADD12R,0.039370X0.118110*%
%ADD13C,0.024000*%
%LNCOPPER0*%
G90*
G70*
G54D10*
X748Y437D03*
X748Y182D03*
X571Y437D03*
X571Y182D03*
X1071Y443D03*
X1071Y187D03*
X894Y443D03*
X894Y187D03*
X1371Y443D03*
X1371Y187D03*
X1194Y443D03*
X1194Y187D03*
G54D11*
X71Y87D03*
X171Y79D03*
X271Y87D03*
X371Y79D03*
X471Y87D03*
X571Y79D03*
X671Y87D03*
X771Y79D03*
X871Y87D03*
X971Y79D03*
X1071Y87D03*
X1171Y79D03*
X1271Y87D03*
X1371Y79D03*
X1471Y87D03*
X1571Y79D03*
G54D12*
X471Y237D03*
X371Y237D03*
X271Y237D03*
X171Y237D03*
G54D13*
X597Y170D02*
X671Y138D01*
D02*
X671Y138D02*
X671Y116D01*
D02*
X821Y113D02*
X795Y95D01*
D02*
X821Y137D02*
X821Y113D01*
D02*
X870Y171D02*
X821Y137D01*
D02*
X1400Y82D02*
X1443Y85D01*
D02*
X1371Y159D02*
X1371Y108D01*
D02*
X821Y537D02*
X765Y461D01*
D02*
X1058Y469D02*
X1021Y537D01*
D02*
X1021Y537D02*
X821Y537D01*
D02*
X1021Y537D02*
X1321Y537D01*
D02*
X1321Y537D02*
X1358Y469D01*
D02*
X996Y237D02*
X996Y162D01*
D02*
X996Y162D02*
X896Y102D01*
D02*
X1121Y263D02*
X1021Y263D01*
D02*
X1021Y263D02*
X996Y237D01*
D02*
X1174Y208D02*
X1121Y263D01*
D02*
X272Y537D02*
X672Y537D01*
D02*
X672Y537D02*
X731Y460D01*
D02*
X171Y437D02*
X272Y537D01*
D02*
X171Y291D02*
X171Y437D01*
D02*
X1571Y212D02*
X1571Y108D01*
D02*
X1421Y337D02*
X1571Y212D01*
D02*
X571Y337D02*
X1421Y337D01*
D02*
X485Y252D02*
X571Y337D01*
D02*
X271Y237D02*
X271Y116D01*
D02*
X271Y237D02*
X271Y237D01*
D02*
X371Y237D02*
X371Y108D01*
D02*
X371Y237D02*
X371Y237D01*
G04 End of Copper0*
M02*